# xmcd
#
# Track frame offsets: 
#        150
#        23637
#        50833
#        75772
#
# Disc length: 1276 seconds
#
# Revision: 0
# Processed by: cddbd v1.5.2PL0 Copyright (c) Steve Scherf et al.
# Submitted via: ExactAudioCopy v1.0b3
#
DISCID=2104fa04
DTITLE=Candelario - Candelario
DYEAR=2002
DGENRE=Blues
TTITLE0=Burning Man
TTITLE1=In My Own Way
TTITLE2=Where Were You
TTITLE3=213
EXTD=
EXTT0=
EXTT1=
EXTT2=
EXTT3=
PLAYORDER=
